<?xml version="1.0" encoding="utf-8" standalone="no"?>
<!DOCTYPE svg PUBLIC "-//W3C//DTD SVG 1.1//EN"
  "http://www.w3.org/Graphics/SVG/1.1/DTD/svg11.dtd">
<svg xmlns:xlink="http://www.w3.org/1999/xlink" width="864pt" height="432pt" viewBox="0 0 864 432" xmlns="http://www.w3.org/2000/svg" version="1.1">
 <metadata>
  <rdf:RDF xmlns:dc="http://purl.org/dc/elements/1.1/" xmlns:cc="http://creativecommons.org/ns#" xmlns:rdf="http://www.w3.org/1999/02/22-rdf-syntax-ns#">
   <cc:Work>
    <dc:type rdf:resource="http://purl.org/dc/dcmitype/StillImage"/>
    <dc:date>2025-07-10T00:59:13.677783</dc:date>
    <dc:format>image/svg+xml</dc:format>
    <dc:creator>
     <cc:Agent>
      <dc:title>Matplotlib v3.9.2, https://matplotlib.org/</dc:title>
     </cc:Agent>
    </dc:creator>
   </cc:Work>
  </rdf:RDF>
 </metadata>
 <defs>
  <style type="text/css">*{stroke-linejoin: round; stroke-linecap: butt}</style>
 </defs>
 <g id="figure_1">
  <g id="patch_1">
   <path d="M 0 432 
L 864 432 
L 864 0 
L 0 0 
z
" style="fill: #ffffff"/>
  </g>
  <g id="axes_1">
   <g id="patch_2">
    <path d="M 37.97 403.48 
L 857.52 403.48 
L 857.52 16.8 
L 37.97 16.8 
z
" style="fill: #ffffff"/>
   </g>
   <g id="matplotlib.axis_1">
    <g id="xtick_1">
     <g id="line2d_1">
      <path d="M 89.368705 403.48 
L 89.368705 16.8 
" clip-path="url(#pb3909bf0c8)" style="fill: none; stroke: #f2f2f2; stroke-width: 0.8; stroke-linecap: round"/>
     </g>
     <g id="text_1">
      <!-- A -->
      <g style="fill: #262626" transform="translate(87.367612 414.774688) scale(0.06 -0.06)">
       <defs>
        <path id="ArialMT-41" d="M -9 0 
L 1750 4581 
L 2403 4581 
L 4278 0 
L 3588 0 
L 3053 1388 
L 1138 1388 
L 634 0 
L -9 0 
z
M 1313 1881 
L 2866 1881 
L 2388 3150 
Q 2169 3728 2063 4100 
Q 1975 3659 1816 3225 
L 1313 1881 
z
" transform="scale(0.015625)"/>
       </defs>
       <use xlink:href="#ArialMT-41"/>
      </g>
     </g>
    </g>
    <g id="xtick_2">
     <g id="line2d_2">
      <path d="M 127.092526 403.48 
L 127.092526 16.8 
" clip-path="url(#pb3909bf0c8)" style="fill: none; stroke: #f2f2f2; stroke-width: 0.8; stroke-linecap: round"/>
     </g>
     <g id="text_2">
      <!-- C -->
      <g style="fill: #262626" transform="translate(124.925963 414.774688) scale(0.06 -0.06)">
       <defs>
        <path id="ArialMT-43" d="M 3763 1606 
L 4369 1453 
Q 4178 706 3683 314 
Q 3188 -78 2472 -78 
Q 1731 -78 1267 223 
Q 803 525 561 1097 
Q 319 1669 319 2325 
Q 319 3041 592 3573 
Q 866 4106 1370 4382 
Q 1875 4659 2481 4659 
Q 3169 4659 3637 4309 
Q 4106 3959 4291 3325 
L 3694 3184 
Q 3534 3684 3231 3912 
Q 2928 4141 2469 4141 
Q 1941 4141 1586 3887 
Q 1231 3634 1087 3207 
Q 944 2781 944 2328 
Q 944 1744 1114 1308 
Q 1284 872 1643 656 
Q 2003 441 2422 441 
Q 2931 441 3284 734 
Q 3638 1028 3763 1606 
z
" transform="scale(0.015625)"/>
       </defs>
       <use xlink:href="#ArialMT-43"/>
      </g>
     </g>
    </g>
    <g id="xtick_3">
     <g id="line2d_3">
      <path d="M 164.816346 403.48 
L 164.816346 16.8 
" clip-path="url(#pb3909bf0c8)" style="fill: none; stroke: #f2f2f2; stroke-width: 0.8; stroke-linecap: round"/>
     </g>
     <g id="text_3">
      <!-- D -->
      <g style="fill: #262626" transform="translate(162.649784 414.774688) scale(0.06 -0.06)">
       <defs>
        <path id="ArialMT-44" d="M 494 0 
L 494 4581 
L 2072 4581 
Q 2606 4581 2888 4516 
Q 3281 4425 3559 4188 
Q 3922 3881 4101 3404 
Q 4281 2928 4281 2316 
Q 4281 1794 4159 1391 
Q 4038 988 3847 723 
Q 3656 459 3429 307 
Q 3203 156 2883 78 
Q 2563 0 2147 0 
L 494 0 
z
M 1100 541 
L 2078 541 
Q 2531 541 2789 625 
Q 3047 709 3200 863 
Q 3416 1078 3536 1442 
Q 3656 1806 3656 2325 
Q 3656 3044 3420 3430 
Q 3184 3816 2847 3947 
Q 2603 4041 2063 4041 
L 1100 4041 
L 1100 541 
z
" transform="scale(0.015625)"/>
       </defs>
       <use xlink:href="#ArialMT-44"/>
      </g>
     </g>
    </g>
    <g id="xtick_4">
     <g id="line2d_4">
      <path d="M 202.540167 403.48 
L 202.540167 16.8 
" clip-path="url(#pb3909bf0c8)" style="fill: none; stroke: #f2f2f2; stroke-width: 0.8; stroke-linecap: round"/>
     </g>
     <g id="text_4">
      <!-- E -->
      <g style="fill: #262626" transform="translate(200.539073 414.774688) scale(0.06 -0.06)">
       <defs>
        <path id="ArialMT-45" d="M 506 0 
L 506 4581 
L 3819 4581 
L 3819 4041 
L 1113 4041 
L 1113 2638 
L 3647 2638 
L 3647 2100 
L 1113 2100 
L 1113 541 
L 3925 541 
L 3925 0 
L 506 0 
z
" transform="scale(0.015625)"/>
       </defs>
       <use xlink:href="#ArialMT-45"/>
      </g>
     </g>
    </g>
    <g id="xtick_5">
     <g id="line2d_5">
      <path d="M 240.263987 403.48 
L 240.263987 16.8 
" clip-path="url(#pb3909bf0c8)" style="fill: none; stroke: #f2f2f2; stroke-width: 0.8; stroke-linecap: round"/>
     </g>
     <g id="text_5">
      <!-- F -->
      <g style="fill: #262626" transform="translate(238.431644 414.774688) scale(0.06 -0.06)">
       <defs>
        <path id="ArialMT-46" d="M 525 0 
L 525 4581 
L 3616 4581 
L 3616 4041 
L 1131 4041 
L 1131 2622 
L 3281 2622 
L 3281 2081 
L 1131 2081 
L 1131 0 
L 525 0 
z
" transform="scale(0.015625)"/>
       </defs>
       <use xlink:href="#ArialMT-46"/>
      </g>
     </g>
    </g>
    <g id="xtick_6">
     <g id="line2d_6">
      <path d="M 277.987808 403.48 
L 277.987808 16.8 
" clip-path="url(#pb3909bf0c8)" style="fill: none; stroke: #f2f2f2; stroke-width: 0.8; stroke-linecap: round"/>
     </g>
     <g id="text_6">
      <!-- G -->
      <g style="fill: #262626" transform="translate(275.65437 414.774688) scale(0.06 -0.06)">
       <defs>
        <path id="ArialMT-47" d="M 2638 1797 
L 2638 2334 
L 4578 2338 
L 4578 638 
Q 4131 281 3656 101 
Q 3181 -78 2681 -78 
Q 2006 -78 1454 211 
Q 903 500 622 1047 
Q 341 1594 341 2269 
Q 341 2938 620 3517 
Q 900 4097 1425 4378 
Q 1950 4659 2634 4659 
Q 3131 4659 3532 4498 
Q 3934 4338 4162 4050 
Q 4391 3763 4509 3300 
L 3963 3150 
Q 3859 3500 3706 3700 
Q 3553 3900 3268 4020 
Q 2984 4141 2638 4141 
Q 2222 4141 1919 4014 
Q 1616 3888 1430 3681 
Q 1244 3475 1141 3228 
Q 966 2803 966 2306 
Q 966 1694 1177 1281 
Q 1388 869 1791 669 
Q 2194 469 2647 469 
Q 3041 469 3416 620 
Q 3791 772 3984 944 
L 3984 1797 
L 2638 1797 
z
" transform="scale(0.015625)"/>
       </defs>
       <use xlink:href="#ArialMT-47"/>
      </g>
     </g>
    </g>
    <g id="xtick_7">
     <g id="line2d_7">
      <path d="M 315.711628 403.48 
L 315.711628 16.8 
" clip-path="url(#pb3909bf0c8)" style="fill: none; stroke: #f2f2f2; stroke-width: 0.8; stroke-linecap: round"/>
     </g>
     <g id="text_7">
      <!-- H -->
      <g style="fill: #262626" transform="translate(313.545066 414.774688) scale(0.06 -0.06)">
       <defs>
        <path id="ArialMT-48" d="M 513 0 
L 513 4581 
L 1119 4581 
L 1119 2700 
L 3500 2700 
L 3500 4581 
L 4106 4581 
L 4106 0 
L 3500 0 
L 3500 2159 
L 1119 2159 
L 1119 0 
L 513 0 
z
" transform="scale(0.015625)"/>
       </defs>
       <use xlink:href="#ArialMT-48"/>
      </g>
     </g>
    </g>
    <g id="xtick_8">
     <g id="line2d_8">
      <path d="M 353.435449 403.48 
L 353.435449 16.8 
" clip-path="url(#pb3909bf0c8)" style="fill: none; stroke: #f2f2f2; stroke-width: 0.8; stroke-linecap: round"/>
     </g>
     <g id="text_8">
      <!-- I -->
      <g style="fill: #262626" transform="translate(352.602011 414.774688) scale(0.06 -0.06)">
       <defs>
        <path id="ArialMT-49" d="M 597 0 
L 597 4581 
L 1203 4581 
L 1203 0 
L 597 0 
z
" transform="scale(0.015625)"/>
       </defs>
       <use xlink:href="#ArialMT-49"/>
      </g>
     </g>
    </g>
    <g id="xtick_9">
     <g id="line2d_9">
      <path d="M 391.159269 403.48 
L 391.159269 16.8 
" clip-path="url(#pb3909bf0c8)" style="fill: none; stroke: #f2f2f2; stroke-width: 0.8; stroke-linecap: round"/>
     </g>
     <g id="text_9">
      <!-- K -->
      <g style="fill: #262626" transform="translate(389.158176 414.774688) scale(0.06 -0.06)">
       <defs>
        <path id="ArialMT-4b" d="M 469 0 
L 469 4581 
L 1075 4581 
L 1075 2309 
L 3350 4581 
L 4172 4581 
L 2250 2725 
L 4256 0 
L 3456 0 
L 1825 2319 
L 1075 1588 
L 1075 0 
L 469 0 
z
" transform="scale(0.015625)"/>
       </defs>
       <use xlink:href="#ArialMT-4b"/>
      </g>
     </g>
    </g>
    <g id="xtick_10">
     <g id="line2d_10">
      <path d="M 428.88309 403.48 
L 428.88309 16.8 
" clip-path="url(#pb3909bf0c8)" style="fill: none; stroke: #f2f2f2; stroke-width: 0.8; stroke-linecap: round"/>
     </g>
     <g id="text_10">
      <!-- L -->
      <g style="fill: #262626" transform="translate(427.214809 414.774688) scale(0.06 -0.06)">
       <defs>
        <path id="ArialMT-4c" d="M 469 0 
L 469 4581 
L 1075 4581 
L 1075 541 
L 3331 541 
L 3331 0 
L 469 0 
z
" transform="scale(0.015625)"/>
       </defs>
       <use xlink:href="#ArialMT-4c"/>
      </g>
     </g>
    </g>
    <g id="xtick_11">
     <g id="line2d_11">
      <path d="M 466.60691 403.48 
L 466.60691 16.8 
" clip-path="url(#pb3909bf0c8)" style="fill: none; stroke: #f2f2f2; stroke-width: 0.8; stroke-linecap: round"/>
     </g>
     <g id="text_11">
      <!-- M -->
      <g style="fill: #262626" transform="translate(464.108004 414.774688) scale(0.06 -0.06)">
       <defs>
        <path id="ArialMT-4d" d="M 475 0 
L 475 4581 
L 1388 4581 
L 2472 1338 
Q 2622 884 2691 659 
Q 2769 909 2934 1394 
L 4031 4581 
L 4847 4581 
L 4847 0 
L 4263 0 
L 4263 3834 
L 2931 0 
L 2384 0 
L 1059 3900 
L 1059 0 
L 475 0 
z
" transform="scale(0.015625)"/>
       </defs>
       <use xlink:href="#ArialMT-4d"/>
      </g>
     </g>
    </g>
    <g id="xtick_12">
     <g id="line2d_12">
      <path d="M 504.330731 403.48 
L 504.330731 16.8 
" clip-path="url(#pb3909bf0c8)" style="fill: none; stroke: #f2f2f2; stroke-width: 0.8; stroke-linecap: round"/>
     </g>
     <g id="text_12">
      <!-- N -->
      <g style="fill: #262626" transform="translate(502.164168 414.774688) scale(0.06 -0.06)">
       <defs>
        <path id="ArialMT-4e" d="M 488 0 
L 488 4581 
L 1109 4581 
L 3516 984 
L 3516 4581 
L 4097 4581 
L 4097 0 
L 3475 0 
L 1069 3600 
L 1069 0 
L 488 0 
z
" transform="scale(0.015625)"/>
       </defs>
       <use xlink:href="#ArialMT-4e"/>
      </g>
     </g>
    </g>
    <g id="xtick_13">
     <g id="line2d_13">
      <path d="M 542.054551 403.48 
L 542.054551 16.8 
" clip-path="url(#pb3909bf0c8)" style="fill: none; stroke: #f2f2f2; stroke-width: 0.8; stroke-linecap: round"/>
     </g>
     <g id="text_13">
      <!-- P -->
      <g style="fill: #262626" transform="translate(540.053457 414.774688) scale(0.06 -0.06)">
       <defs>
        <path id="ArialMT-50" d="M 494 0 
L 494 4581 
L 2222 4581 
Q 2678 4581 2919 4538 
Q 3256 4481 3484 4323 
Q 3713 4166 3852 3881 
Q 3991 3597 3991 3256 
Q 3991 2672 3619 2267 
Q 3247 1863 2275 1863 
L 1100 1863 
L 1100 0 
L 494 0 
z
M 1100 2403 
L 2284 2403 
Q 2872 2403 3119 2622 
Q 3366 2841 3366 3238 
Q 3366 3525 3220 3729 
Q 3075 3934 2838 4000 
Q 2684 4041 2272 4041 
L 1100 4041 
L 1100 2403 
z
" transform="scale(0.015625)"/>
       </defs>
       <use xlink:href="#ArialMT-50"/>
      </g>
     </g>
    </g>
    <g id="xtick_14">
     <g id="line2d_14">
      <path d="M 579.778372 403.48 
L 579.778372 16.8 
" clip-path="url(#pb3909bf0c8)" style="fill: none; stroke: #f2f2f2; stroke-width: 0.8; stroke-linecap: round"/>
     </g>
     <g id="text_14">
      <!-- Q -->
      <g style="fill: #262626" transform="translate(577.444934 414.774688) scale(0.06 -0.06)">
       <defs>
        <path id="ArialMT-51" d="M 3966 491 
Q 4388 200 4744 66 
L 4566 -356 
Q 4072 -178 3581 206 
Q 3072 -78 2456 -78 
Q 1834 -78 1328 222 
Q 822 522 548 1065 
Q 275 1609 275 2291 
Q 275 2969 550 3525 
Q 825 4081 1333 4372 
Q 1841 4663 2469 4663 
Q 3103 4663 3612 4361 
Q 4122 4059 4389 3517 
Q 4656 2975 4656 2294 
Q 4656 1728 4484 1276 
Q 4313 825 3966 491 
z
M 2631 1266 
Q 3156 1119 3497 828 
Q 4031 1316 4031 2294 
Q 4031 2850 3842 3265 
Q 3653 3681 3289 3911 
Q 2925 4141 2472 4141 
Q 1794 4141 1347 3677 
Q 900 3213 900 2291 
Q 900 1397 1342 919 
Q 1784 441 2472 441 
Q 2797 441 3084 563 
Q 2800 747 2484 825 
L 2631 1266 
z
" transform="scale(0.015625)"/>
       </defs>
       <use xlink:href="#ArialMT-51"/>
      </g>
     </g>
    </g>
    <g id="xtick_15">
     <g id="line2d_15">
      <path d="M 617.502192 403.48 
L 617.502192 16.8 
" clip-path="url(#pb3909bf0c8)" style="fill: none; stroke: #f2f2f2; stroke-width: 0.8; stroke-linecap: round"/>
     </g>
     <g id="text_15">
      <!-- R -->
      <g style="fill: #262626" transform="translate(615.33563 414.774688) scale(0.06 -0.06)">
       <defs>
        <path id="ArialMT-52" d="M 503 0 
L 503 4581 
L 2534 4581 
Q 3147 4581 3465 4457 
Q 3784 4334 3975 4021 
Q 4166 3709 4166 3331 
Q 4166 2844 3850 2509 
Q 3534 2175 2875 2084 
Q 3116 1969 3241 1856 
Q 3506 1613 3744 1247 
L 4541 0 
L 3778 0 
L 3172 953 
Q 2906 1366 2734 1584 
Q 2563 1803 2427 1890 
Q 2291 1978 2150 2013 
Q 2047 2034 1813 2034 
L 1109 2034 
L 1109 0 
L 503 0 
z
M 1109 2559 
L 2413 2559 
Q 2828 2559 3062 2645 
Q 3297 2731 3419 2920 
Q 3541 3109 3541 3331 
Q 3541 3656 3305 3865 
Q 3069 4075 2559 4075 
L 1109 4075 
L 1109 2559 
z
" transform="scale(0.015625)"/>
       </defs>
       <use xlink:href="#ArialMT-52"/>
      </g>
     </g>
    </g>
    <g id="xtick_16">
     <g id="line2d_16">
      <path d="M 655.226013 403.48 
L 655.226013 16.8 
" clip-path="url(#pb3909bf0c8)" style="fill: none; stroke: #f2f2f2; stroke-width: 0.8; stroke-linecap: round"/>
     </g>
     <g id="text_16">
      <!-- S -->
      <g style="fill: #262626" transform="translate(653.224919 414.774688) scale(0.06 -0.06)">
       <defs>
        <path id="ArialMT-53" d="M 288 1472 
L 859 1522 
Q 900 1178 1048 958 
Q 1197 738 1509 602 
Q 1822 466 2213 466 
Q 2559 466 2825 569 
Q 3091 672 3220 851 
Q 3350 1031 3350 1244 
Q 3350 1459 3225 1620 
Q 3100 1781 2813 1891 
Q 2628 1963 1997 2114 
Q 1366 2266 1113 2400 
Q 784 2572 623 2826 
Q 463 3081 463 3397 
Q 463 3744 659 4045 
Q 856 4347 1234 4503 
Q 1613 4659 2075 4659 
Q 2584 4659 2973 4495 
Q 3363 4331 3572 4012 
Q 3781 3694 3797 3291 
L 3216 3247 
Q 3169 3681 2898 3903 
Q 2628 4125 2100 4125 
Q 1550 4125 1298 3923 
Q 1047 3722 1047 3438 
Q 1047 3191 1225 3031 
Q 1400 2872 2139 2705 
Q 2878 2538 3153 2413 
Q 3553 2228 3743 1945 
Q 3934 1663 3934 1294 
Q 3934 928 3725 604 
Q 3516 281 3123 101 
Q 2731 -78 2241 -78 
Q 1619 -78 1198 103 
Q 778 284 539 648 
Q 300 1013 288 1472 
z
" transform="scale(0.015625)"/>
       </defs>
       <use xlink:href="#ArialMT-53"/>
      </g>
     </g>
    </g>
    <g id="xtick_17">
     <g id="line2d_17">
      <path d="M 692.949833 403.48 
L 692.949833 16.8 
" clip-path="url(#pb3909bf0c8)" style="fill: none; stroke: #f2f2f2; stroke-width: 0.8; stroke-linecap: round"/>
     </g>
     <g id="text_17">
      <!-- T -->
      <g style="fill: #262626" transform="translate(691.117489 414.774688) scale(0.06 -0.06)">
       <defs>
        <path id="ArialMT-54" d="M 1659 0 
L 1659 4041 
L 150 4041 
L 150 4581 
L 3781 4581 
L 3781 4041 
L 2266 4041 
L 2266 0 
L 1659 0 
z
" transform="scale(0.015625)"/>
       </defs>
       <use xlink:href="#ArialMT-54"/>
      </g>
     </g>
    </g>
    <g id="xtick_18">
     <g id="line2d_18">
      <path d="M 730.673654 403.48 
L 730.673654 16.8 
" clip-path="url(#pb3909bf0c8)" style="fill: none; stroke: #f2f2f2; stroke-width: 0.8; stroke-linecap: round"/>
     </g>
     <g id="text_18">
      <!-- V -->
      <g style="fill: #262626" transform="translate(728.67256 414.774688) scale(0.06 -0.06)">
       <defs>
        <path id="ArialMT-56" d="M 1803 0 
L 28 4581 
L 684 4581 
L 1875 1253 
Q 2019 853 2116 503 
Q 2222 878 2363 1253 
L 3600 4581 
L 4219 4581 
L 2425 0 
L 1803 0 
z
" transform="scale(0.015625)"/>
       </defs>
       <use xlink:href="#ArialMT-56"/>
      </g>
     </g>
    </g>
    <g id="xtick_19">
     <g id="line2d_19">
      <path d="M 768.397474 403.48 
L 768.397474 16.8 
" clip-path="url(#pb3909bf0c8)" style="fill: none; stroke: #f2f2f2; stroke-width: 0.8; stroke-linecap: round"/>
     </g>
     <g id="text_19">
      <!-- W -->
      <g style="fill: #262626" transform="translate(765.565755 414.774688) scale(0.06 -0.06)">
       <defs>
        <path id="ArialMT-57" d="M 1294 0 
L 78 4581 
L 700 4581 
L 1397 1578 
Q 1509 1106 1591 641 
Q 1766 1375 1797 1488 
L 2669 4581 
L 3400 4581 
L 4056 2263 
Q 4303 1400 4413 641 
Q 4500 1075 4641 1638 
L 5359 4581 
L 5969 4581 
L 4713 0 
L 4128 0 
L 3163 3491 
Q 3041 3928 3019 4028 
Q 2947 3713 2884 3491 
L 1913 0 
L 1294 0 
z
" transform="scale(0.015625)"/>
       </defs>
       <use xlink:href="#ArialMT-57"/>
      </g>
     </g>
    </g>
    <g id="xtick_20">
     <g id="line2d_20">
      <path d="M 806.121295 403.48 
L 806.121295 16.8 
" clip-path="url(#pb3909bf0c8)" style="fill: none; stroke: #f2f2f2; stroke-width: 0.8; stroke-linecap: round"/>
     </g>
     <g id="text_20">
      <!-- Y -->
      <g style="fill: #262626" transform="translate(804.120201 414.774688) scale(0.06 -0.06)">
       <defs>
        <path id="ArialMT-59" d="M 1784 0 
L 1784 1941 
L 19 4581 
L 756 4581 
L 1659 3200 
Q 1909 2813 2125 2425 
Q 2331 2784 2625 3234 
L 3513 4581 
L 4219 4581 
L 2391 1941 
L 2391 0 
L 1784 0 
z
" transform="scale(0.015625)"/>
       </defs>
       <use xlink:href="#ArialMT-59"/>
      </g>
     </g>
    </g>
    <g id="text_21">
     <!-- Aminoacids -->
     <g style="fill: #262626" transform="translate(432.23875 424.261875) scale(0.06 -0.06)">
      <defs>
       <path id="ArialMT-6d" d="M 422 0 
L 422 3319 
L 925 3319 
L 925 2853 
Q 1081 3097 1340 3245 
Q 1600 3394 1931 3394 
Q 2300 3394 2536 3241 
Q 2772 3088 2869 2813 
Q 3263 3394 3894 3394 
Q 4388 3394 4653 3120 
Q 4919 2847 4919 2278 
L 4919 0 
L 4359 0 
L 4359 2091 
Q 4359 2428 4304 2576 
Q 4250 2725 4106 2815 
Q 3963 2906 3769 2906 
Q 3419 2906 3187 2673 
Q 2956 2441 2956 1928 
L 2956 0 
L 2394 0 
L 2394 2156 
Q 2394 2531 2256 2718 
Q 2119 2906 1806 2906 
Q 1569 2906 1367 2781 
Q 1166 2656 1075 2415 
Q 984 2175 984 1722 
L 984 0 
L 422 0 
z
" transform="scale(0.015625)"/>
       <path id="ArialMT-69" d="M 425 3934 
L 425 4581 
L 988 4581 
L 988 3934 
L 425 3934 
z
M 425 0 
L 425 3319 
L 988 3319 
L 988 0 
L 425 0 
z
" transform="scale(0.015625)"/>
       <path id="ArialMT-6e" d="M 422 0 
L 422 3319 
L 928 3319 
L 928 2847 
Q 1294 3394 1984 3394 
Q 2284 3394 2536 3286 
Q 2788 3178 2913 3003 
Q 3038 2828 3088 2588 
Q 3119 2431 3119 2041 
L 3119 0 
L 2556 0 
L 2556 2019 
Q 2556 2363 2490 2533 
Q 2425 2703 2258 2804 
Q 2091 2906 1866 2906 
Q 1506 2906 1245 2678 
Q 984 2450 984 1813 
L 984 0 
L 422 0 
z
" transform="scale(0.015625)"/>
       <path id="ArialMT-6f" d="M 213 1659 
Q 213 2581 725 3025 
Q 1153 3394 1769 3394 
Q 2453 3394 2887 2945 
Q 3322 2497 3322 1706 
Q 3322 1066 3130 698 
Q 2938 331 2570 128 
Q 2203 -75 1769 -75 
Q 1072 -75 642 372 
Q 213 819 213 1659 
z
M 791 1659 
Q 791 1022 1069 705 
Q 1347 388 1769 388 
Q 2188 388 2466 706 
Q 2744 1025 2744 1678 
Q 2744 2294 2464 2611 
Q 2184 2928 1769 2928 
Q 1347 2928 1069 2612 
Q 791 2297 791 1659 
z
" transform="scale(0.015625)"/>
       <path id="ArialMT-61" d="M 2588 409 
Q 2275 144 1986 34 
Q 1697 -75 1366 -75 
Q 819 -75 525 192 
Q 231 459 231 875 
Q 231 1119 342 1320 
Q 453 1522 633 1644 
Q 813 1766 1038 1828 
Q 1203 1872 1538 1913 
Q 2219 1994 2541 2106 
Q 2544 2222 2544 2253 
Q 2544 2597 2384 2738 
Q 2169 2928 1744 2928 
Q 1347 2928 1158 2789 
Q 969 2650 878 2297 
L 328 2372 
Q 403 2725 575 2942 
Q 747 3159 1072 3276 
Q 1397 3394 1825 3394 
Q 2250 3394 2515 3294 
Q 2781 3194 2906 3042 
Q 3031 2891 3081 2659 
Q 3109 2516 3109 2141 
L 3109 1391 
Q 3109 606 3145 398 
Q 3181 191 3288 0 
L 2700 0 
Q 2613 175 2588 409 
z
M 2541 1666 
Q 2234 1541 1622 1453 
Q 1275 1403 1131 1340 
Q 988 1278 909 1158 
Q 831 1038 831 891 
Q 831 666 1001 516 
Q 1172 366 1500 366 
Q 1825 366 2078 508 
Q 2331 650 2450 897 
Q 2541 1088 2541 1459 
L 2541 1666 
z
" transform="scale(0.015625)"/>
       <path id="ArialMT-63" d="M 2588 1216 
L 3141 1144 
Q 3050 572 2676 248 
Q 2303 -75 1759 -75 
Q 1078 -75 664 370 
Q 250 816 250 1647 
Q 250 2184 428 2587 
Q 606 2991 970 3192 
Q 1334 3394 1763 3394 
Q 2303 3394 2647 3120 
Q 2991 2847 3088 2344 
L 2541 2259 
Q 2463 2594 2264 2762 
Q 2066 2931 1784 2931 
Q 1359 2931 1093 2626 
Q 828 2322 828 1663 
Q 828 994 1084 691 
Q 1341 388 1753 388 
Q 2084 388 2306 591 
Q 2528 794 2588 1216 
z
" transform="scale(0.015625)"/>
       <path id="ArialMT-64" d="M 2575 0 
L 2575 419 
Q 2259 -75 1647 -75 
Q 1250 -75 917 144 
Q 584 363 401 755 
Q 219 1147 219 1656 
Q 219 2153 384 2558 
Q 550 2963 881 3178 
Q 1213 3394 1622 3394 
Q 1922 3394 2156 3267 
Q 2391 3141 2538 2938 
L 2538 4581 
L 3097 4581 
L 3097 0 
L 2575 0 
z
M 797 1656 
Q 797 1019 1065 703 
Q 1334 388 1700 388 
Q 2069 388 2326 689 
Q 2584 991 2584 1609 
Q 2584 2291 2321 2609 
Q 2059 2928 1675 2928 
Q 1300 2928 1048 2622 
Q 797 2316 797 1656 
z
" transform="scale(0.015625)"/>
       <path id="ArialMT-73" d="M 197 991 
L 753 1078 
Q 800 744 1014 566 
Q 1228 388 1613 388 
Q 2000 388 2187 545 
Q 2375 703 2375 916 
Q 2375 1106 2209 1216 
Q 2094 1291 1634 1406 
Q 1016 1563 777 1677 
Q 538 1791 414 1992 
Q 291 2194 291 2438 
Q 291 2659 392 2848 
Q 494 3038 669 3163 
Q 800 3259 1026 3326 
Q 1253 3394 1513 3394 
Q 1903 3394 2198 3281 
Q 2494 3169 2634 2976 
Q 2775 2784 2828 2463 
L 2278 2388 
Q 2241 2644 2061 2787 
Q 1881 2931 1553 2931 
Q 1166 2931 1000 2803 
Q 834 2675 834 2503 
Q 834 2394 903 2306 
Q 972 2216 1119 2156 
Q 1203 2125 1616 2013 
Q 2213 1853 2448 1751 
Q 2684 1650 2818 1456 
Q 2953 1263 2953 975 
Q 2953 694 2789 445 
Q 2625 197 2315 61 
Q 2006 -75 1616 -75 
Q 969 -75 630 194 
Q 291 463 197 991 
z
" transform="scale(0.015625)"/>
      </defs>
      <use xlink:href="#ArialMT-41"/>
      <use xlink:href="#ArialMT-6d" x="66.699219"/>
      <use xlink:href="#ArialMT-69" x="150"/>
      <use xlink:href="#ArialMT-6e" x="172.216797"/>
      <use xlink:href="#ArialMT-6f" x="227.832031"/>
      <use xlink:href="#ArialMT-61" x="283.447266"/>
      <use xlink:href="#ArialMT-63" x="339.0625"/>
      <use xlink:href="#ArialMT-69" x="389.0625"/>
      <use xlink:href="#ArialMT-64" x="411.279297"/>
      <use xlink:href="#ArialMT-73" x="466.894531"/>
     </g>
    </g>
   </g>
   <g id="matplotlib.axis_2">
    <g id="ytick_1">
     <g id="line2d_21">
      <path d="M 37.97 403.48 
L 857.52 403.48 
" clip-path="url(#pb3909bf0c8)" style="fill: none; stroke: #f2f2f2; stroke-width: 0.8; stroke-linecap: round"/>
     </g>
     <g id="text_22">
      <!-- 0.000 -->
      <g style="fill: #262626" transform="translate(15.956875 405.627344) scale(0.06 -0.06)">
       <defs>
        <path id="ArialMT-30" d="M 266 2259 
Q 266 3072 433 3567 
Q 600 4063 929 4331 
Q 1259 4600 1759 4600 
Q 2128 4600 2406 4451 
Q 2684 4303 2865 4023 
Q 3047 3744 3150 3342 
Q 3253 2941 3253 2259 
Q 3253 1453 3087 958 
Q 2922 463 2592 192 
Q 2263 -78 1759 -78 
Q 1097 -78 719 397 
Q 266 969 266 2259 
z
M 844 2259 
Q 844 1131 1108 757 
Q 1372 384 1759 384 
Q 2147 384 2411 759 
Q 2675 1134 2675 2259 
Q 2675 3391 2411 3762 
Q 2147 4134 1753 4134 
Q 1366 4134 1134 3806 
Q 844 3388 844 2259 
z
" transform="scale(0.015625)"/>
        <path id="ArialMT-2e" d="M 581 0 
L 581 641 
L 1222 641 
L 1222 0 
L 581 0 
z
" transform="scale(0.015625)"/>
       </defs>
       <use xlink:href="#ArialMT-30"/>
       <use xlink:href="#ArialMT-2e" x="55.615234"/>
       <use xlink:href="#ArialMT-30" x="83.398438"/>
       <use xlink:href="#ArialMT-30" x="139.013672"/>
       <use xlink:href="#ArialMT-30" x="194.628906"/>
      </g>
     </g>
    </g>
    <g id="ytick_2">
     <g id="line2d_22">
      <path d="M 37.97 359.109342 
L 857.52 359.109342 
" clip-path="url(#pb3909bf0c8)" style="fill: none; stroke: #f2f2f2; stroke-width: 0.8; stroke-linecap: round"/>
     </g>
     <g id="text_23">
      <!-- 0.020 -->
      <g style="fill: #262626" transform="translate(15.956875 361.256685) scale(0.06 -0.06)">
       <defs>
        <path id="ArialMT-32" d="M 3222 541 
L 3222 0 
L 194 0 
Q 188 203 259 391 
Q 375 700 629 1000 
Q 884 1300 1366 1694 
Q 2113 2306 2375 2664 
Q 2638 3022 2638 3341 
Q 2638 3675 2398 3904 
Q 2159 4134 1775 4134 
Q 1369 4134 1125 3890 
Q 881 3647 878 3216 
L 300 3275 
Q 359 3922 746 4261 
Q 1134 4600 1788 4600 
Q 2447 4600 2831 4234 
Q 3216 3869 3216 3328 
Q 3216 3053 3103 2787 
Q 2991 2522 2730 2228 
Q 2469 1934 1863 1422 
Q 1356 997 1212 845 
Q 1069 694 975 541 
L 3222 541 
z
" transform="scale(0.015625)"/>
       </defs>
       <use xlink:href="#ArialMT-30"/>
       <use xlink:href="#ArialMT-2e" x="55.615234"/>
       <use xlink:href="#ArialMT-30" x="83.398438"/>
       <use xlink:href="#ArialMT-32" x="139.013672"/>
       <use xlink:href="#ArialMT-30" x="194.628906"/>
      </g>
     </g>
    </g>
    <g id="ytick_3">
     <g id="line2d_23">
      <path d="M 37.97 314.738683 
L 857.52 314.738683 
" clip-path="url(#pb3909bf0c8)" style="fill: none; stroke: #f2f2f2; stroke-width: 0.8; stroke-linecap: round"/>
     </g>
     <g id="text_24">
      <!-- 0.040 -->
      <g style="fill: #262626" transform="translate(15.956875 316.886027) scale(0.06 -0.06)">
       <defs>
        <path id="ArialMT-34" d="M 2069 0 
L 2069 1097 
L 81 1097 
L 81 1613 
L 2172 4581 
L 2631 4581 
L 2631 1613 
L 3250 1613 
L 3250 1097 
L 2631 1097 
L 2631 0 
L 2069 0 
z
M 2069 1613 
L 2069 3678 
L 634 1613 
L 2069 1613 
z
" transform="scale(0.015625)"/>
       </defs>
       <use xlink:href="#ArialMT-30"/>
       <use xlink:href="#ArialMT-2e" x="55.615234"/>
       <use xlink:href="#ArialMT-30" x="83.398438"/>
       <use xlink:href="#ArialMT-34" x="139.013672"/>
       <use xlink:href="#ArialMT-30" x="194.628906"/>
      </g>
     </g>
    </g>
    <g id="ytick_4">
     <g id="line2d_24">
      <path d="M 37.97 270.368025 
L 857.52 270.368025 
" clip-path="url(#pb3909bf0c8)" style="fill: none; stroke: #f2f2f2; stroke-width: 0.8; stroke-linecap: round"/>
     </g>
     <g id="text_25">
      <!-- 0.060 -->
      <g style="fill: #262626" transform="translate(15.956875 272.515369) scale(0.06 -0.06)">
       <defs>
        <path id="ArialMT-36" d="M 3184 3459 
L 2625 3416 
Q 2550 3747 2413 3897 
Q 2184 4138 1850 4138 
Q 1581 4138 1378 3988 
Q 1113 3794 959 3422 
Q 806 3050 800 2363 
Q 1003 2672 1297 2822 
Q 1591 2972 1913 2972 
Q 2475 2972 2870 2558 
Q 3266 2144 3266 1488 
Q 3266 1056 3080 686 
Q 2894 316 2569 119 
Q 2244 -78 1831 -78 
Q 1128 -78 684 439 
Q 241 956 241 2144 
Q 241 3472 731 4075 
Q 1159 4600 1884 4600 
Q 2425 4600 2770 4297 
Q 3116 3994 3184 3459 
z
M 888 1484 
Q 888 1194 1011 928 
Q 1134 663 1356 523 
Q 1578 384 1822 384 
Q 2178 384 2434 671 
Q 2691 959 2691 1453 
Q 2691 1928 2437 2201 
Q 2184 2475 1800 2475 
Q 1419 2475 1153 2201 
Q 888 1928 888 1484 
z
" transform="scale(0.015625)"/>
       </defs>
       <use xlink:href="#ArialMT-30"/>
       <use xlink:href="#ArialMT-2e" x="55.615234"/>
       <use xlink:href="#ArialMT-30" x="83.398438"/>
       <use xlink:href="#ArialMT-36" x="139.013672"/>
       <use xlink:href="#ArialMT-30" x="194.628906"/>
      </g>
     </g>
    </g>
    <g id="ytick_5">
     <g id="line2d_25">
      <path d="M 37.97 225.997367 
L 857.52 225.997367 
" clip-path="url(#pb3909bf0c8)" style="fill: none; stroke: #f2f2f2; stroke-width: 0.8; stroke-linecap: round"/>
     </g>
     <g id="text_26">
      <!-- 0.080 -->
      <g style="fill: #262626" transform="translate(15.956875 228.14471) scale(0.06 -0.06)">
       <defs>
        <path id="ArialMT-38" d="M 1131 2484 
Q 781 2613 612 2850 
Q 444 3088 444 3419 
Q 444 3919 803 4259 
Q 1163 4600 1759 4600 
Q 2359 4600 2725 4251 
Q 3091 3903 3091 3403 
Q 3091 3084 2923 2848 
Q 2756 2613 2416 2484 
Q 2838 2347 3058 2040 
Q 3278 1734 3278 1309 
Q 3278 722 2862 322 
Q 2447 -78 1769 -78 
Q 1091 -78 675 323 
Q 259 725 259 1325 
Q 259 1772 486 2073 
Q 713 2375 1131 2484 
z
M 1019 3438 
Q 1019 3113 1228 2906 
Q 1438 2700 1772 2700 
Q 2097 2700 2305 2904 
Q 2513 3109 2513 3406 
Q 2513 3716 2298 3927 
Q 2084 4138 1766 4138 
Q 1444 4138 1231 3931 
Q 1019 3725 1019 3438 
z
M 838 1322 
Q 838 1081 952 856 
Q 1066 631 1291 507 
Q 1516 384 1775 384 
Q 2178 384 2440 643 
Q 2703 903 2703 1303 
Q 2703 1709 2433 1975 
Q 2163 2241 1756 2241 
Q 1359 2241 1098 1978 
Q 838 1716 838 1322 
z
" transform="scale(0.015625)"/>
       </defs>
       <use xlink:href="#ArialMT-30"/>
       <use xlink:href="#ArialMT-2e" x="55.615234"/>
       <use xlink:href="#ArialMT-30" x="83.398438"/>
       <use xlink:href="#ArialMT-38" x="139.013672"/>
       <use xlink:href="#ArialMT-30" x="194.628906"/>
      </g>
     </g>
    </g>
    <g id="ytick_6">
     <g id="line2d_26">
      <path d="M 37.97 181.626708 
L 857.52 181.626708 
" clip-path="url(#pb3909bf0c8)" style="fill: none; stroke: #f2f2f2; stroke-width: 0.8; stroke-linecap: round"/>
     </g>
     <g id="text_27">
      <!-- 0.100 -->
      <g style="fill: #262626" transform="translate(15.956875 183.774052) scale(0.06 -0.06)">
       <defs>
        <path id="ArialMT-31" d="M 2384 0 
L 1822 0 
L 1822 3584 
Q 1619 3391 1289 3197 
Q 959 3003 697 2906 
L 697 3450 
Q 1169 3672 1522 3987 
Q 1875 4303 2022 4600 
L 2384 4600 
L 2384 0 
z
" transform="scale(0.015625)"/>
       </defs>
       <use xlink:href="#ArialMT-30"/>
       <use xlink:href="#ArialMT-2e" x="55.615234"/>
       <use xlink:href="#ArialMT-31" x="83.398438"/>
       <use xlink:href="#ArialMT-30" x="139.013672"/>
       <use xlink:href="#ArialMT-30" x="194.628906"/>
      </g>
     </g>
    </g>
    <g id="ytick_7">
     <g id="line2d_27">
      <path d="M 37.97 137.25605 
L 857.52 137.25605 
" clip-path="url(#pb3909bf0c8)" style="fill: none; stroke: #f2f2f2; stroke-width: 0.8; stroke-linecap: round"/>
     </g>
     <g id="text_28">
      <!-- 0.120 -->
      <g style="fill: #262626" transform="translate(15.956875 139.403394) scale(0.06 -0.06)">
       <use xlink:href="#ArialMT-30"/>
       <use xlink:href="#ArialMT-2e" x="55.615234"/>
       <use xlink:href="#ArialMT-31" x="83.398438"/>
       <use xlink:href="#ArialMT-32" x="139.013672"/>
       <use xlink:href="#ArialMT-30" x="194.628906"/>
      </g>
     </g>
    </g>
    <g id="ytick_8">
     <g id="line2d_28">
      <path d="M 37.97 92.885392 
L 857.52 92.885392 
" clip-path="url(#pb3909bf0c8)" style="fill: none; stroke: #f2f2f2; stroke-width: 0.8; stroke-linecap: round"/>
     </g>
     <g id="text_29">
      <!-- 0.140 -->
      <g style="fill: #262626" transform="translate(15.956875 95.032736) scale(0.06 -0.06)">
       <use xlink:href="#ArialMT-30"/>
       <use xlink:href="#ArialMT-2e" x="55.615234"/>
       <use xlink:href="#ArialMT-31" x="83.398438"/>
       <use xlink:href="#ArialMT-34" x="139.013672"/>
       <use xlink:href="#ArialMT-30" x="194.628906"/>
      </g>
     </g>
    </g>
    <g id="ytick_9">
     <g id="line2d_29">
      <path d="M 37.97 48.514733 
L 857.52 48.514733 
" clip-path="url(#pb3909bf0c8)" style="fill: none; stroke: #f2f2f2; stroke-width: 0.8; stroke-linecap: round"/>
     </g>
     <g id="text_30">
      <!-- 0.160 -->
      <g style="fill: #262626" transform="translate(15.956875 50.662077) scale(0.06 -0.06)">
       <use xlink:href="#ArialMT-30"/>
       <use xlink:href="#ArialMT-2e" x="55.615234"/>
       <use xlink:href="#ArialMT-31" x="83.398438"/>
       <use xlink:href="#ArialMT-36" x="139.013672"/>
       <use xlink:href="#ArialMT-30" x="194.628906"/>
      </g>
     </g>
    </g>
    <g id="text_31">
     <!-- Frequency -->
     <g style="fill: #262626" transform="translate(10.694063 224.312656) rotate(-90) scale(0.06 -0.06)">
      <defs>
       <path id="ArialMT-72" d="M 416 0 
L 416 3319 
L 922 3319 
L 922 2816 
Q 1116 3169 1280 3281 
Q 1444 3394 1641 3394 
Q 1925 3394 2219 3213 
L 2025 2691 
Q 1819 2813 1613 2813 
Q 1428 2813 1281 2702 
Q 1134 2591 1072 2394 
Q 978 2094 978 1738 
L 978 0 
L 416 0 
z
" transform="scale(0.015625)"/>
       <path id="ArialMT-65" d="M 2694 1069 
L 3275 997 
Q 3138 488 2766 206 
Q 2394 -75 1816 -75 
Q 1088 -75 661 373 
Q 234 822 234 1631 
Q 234 2469 665 2931 
Q 1097 3394 1784 3394 
Q 2450 3394 2872 2941 
Q 3294 2488 3294 1666 
Q 3294 1616 3291 1516 
L 816 1516 
Q 847 969 1125 678 
Q 1403 388 1819 388 
Q 2128 388 2347 550 
Q 2566 713 2694 1069 
z
M 847 1978 
L 2700 1978 
Q 2663 2397 2488 2606 
Q 2219 2931 1791 2931 
Q 1403 2931 1139 2672 
Q 875 2413 847 1978 
z
" transform="scale(0.015625)"/>
       <path id="ArialMT-71" d="M 2538 -1272 
L 2538 353 
Q 2406 169 2170 47 
Q 1934 -75 1669 -75 
Q 1078 -75 651 397 
Q 225 869 225 1691 
Q 225 2191 398 2587 
Q 572 2984 901 3189 
Q 1231 3394 1625 3394 
Q 2241 3394 2594 2875 
L 2594 3319 
L 3100 3319 
L 3100 -1272 
L 2538 -1272 
z
M 803 1669 
Q 803 1028 1072 708 
Q 1341 388 1716 388 
Q 2075 388 2334 692 
Q 2594 997 2594 1619 
Q 2594 2281 2320 2615 
Q 2047 2950 1678 2950 
Q 1313 2950 1058 2639 
Q 803 2328 803 1669 
z
" transform="scale(0.015625)"/>
       <path id="ArialMT-75" d="M 2597 0 
L 2597 488 
Q 2209 -75 1544 -75 
Q 1250 -75 995 37 
Q 741 150 617 320 
Q 494 491 444 738 
Q 409 903 409 1263 
L 409 3319 
L 972 3319 
L 972 1478 
Q 972 1038 1006 884 
Q 1059 663 1231 536 
Q 1403 409 1656 409 
Q 1909 409 2131 539 
Q 2353 669 2445 892 
Q 2538 1116 2538 1541 
L 2538 3319 
L 3100 3319 
L 3100 0 
L 2597 0 
z
" transform="scale(0.015625)"/>
       <path id="ArialMT-79" d="M 397 -1278 
L 334 -750 
Q 519 -800 656 -800 
Q 844 -800 956 -737 
Q 1069 -675 1141 -563 
Q 1194 -478 1313 -144 
Q 1328 -97 1363 -6 
L 103 3319 
L 709 3319 
L 1400 1397 
Q 1534 1031 1641 628 
Q 1738 1016 1872 1384 
L 2581 3319 
L 3144 3319 
L 1881 -56 
Q 1678 -603 1566 -809 
Q 1416 -1088 1222 -1217 
Q 1028 -1347 759 -1347 
Q 597 -1347 397 -1278 
z
" transform="scale(0.015625)"/>
      </defs>
      <use xlink:href="#ArialMT-46"/>
      <use xlink:href="#ArialMT-72" x="61.083984"/>
      <use xlink:href="#ArialMT-65" x="94.384766"/>
      <use xlink:href="#ArialMT-71" x="150"/>
      <use xlink:href="#ArialMT-75" x="205.615234"/>
      <use xlink:href="#ArialMT-65" x="261.230469"/>
      <use xlink:href="#ArialMT-6e" x="316.845703"/>
      <use xlink:href="#ArialMT-63" x="372.460938"/>
      <use xlink:href="#ArialMT-79" x="422.460938"/>
     </g>
    </g>
   </g>
   <g id="patch_3">
    <path d="M 75.222273 403.48 
L 84.653228 403.48 
L 84.653228 292.258149 
L 75.222273 292.258149 
z
" clip-path="url(#pb3909bf0c8)" style="fill: #1f77b4; stroke: #ffffff; stroke-linejoin: miter"/>
   </g>
   <g id="patch_4">
    <path d="M 112.946093 403.48 
L 122.377048 403.48 
L 122.377048 292.700532 
L 112.946093 292.700532 
z
" clip-path="url(#pb3909bf0c8)" style="fill: #1f77b4; stroke: #ffffff; stroke-linejoin: miter"/>
   </g>
   <g id="patch_5">
    <path d="M 150.669914 403.48 
L 160.100869 403.48 
L 160.100869 292.676711 
L 150.669914 292.676711 
z
" clip-path="url(#pb3909bf0c8)" style="fill: #1f77b4; stroke: #ffffff; stroke-linejoin: miter"/>
   </g>
   <g id="patch_6">
    <path d="M 188.393734 403.48 
L 197.824689 403.48 
L 197.824689 292.663099 
L 188.393734 292.663099 
z
" clip-path="url(#pb3909bf0c8)" style="fill: #1f77b4; stroke: #ffffff; stroke-linejoin: miter"/>
   </g>
   <g id="patch_7">
    <path d="M 226.117555 403.48 
L 235.54851 403.48 
L 235.54851 292.588234 
L 226.117555 292.588234 
z
" clip-path="url(#pb3909bf0c8)" style="fill: #1f77b4; stroke: #ffffff; stroke-linejoin: miter"/>
   </g>
   <g id="patch_8">
    <path d="M 263.841375 403.48 
L 273.27233 403.48 
L 273.27233 292.458922 
L 263.841375 292.458922 
z
" clip-path="url(#pb3909bf0c8)" style="fill: #1f77b4; stroke: #ffffff; stroke-linejoin: miter"/>
   </g>
   <g id="patch_9">
    <path d="M 301.565196 403.48 
L 310.996151 403.48 
L 310.996151 292.952349 
L 301.565196 292.952349 
z
" clip-path="url(#pb3909bf0c8)" style="fill: #1f77b4; stroke: #ffffff; stroke-linejoin: miter"/>
   </g>
   <g id="patch_10">
    <path d="M 339.289016 403.48 
L 348.719971 403.48 
L 348.719971 292.339819 
L 339.289016 292.339819 
z
" clip-path="url(#pb3909bf0c8)" style="fill: #1f77b4; stroke: #ffffff; stroke-linejoin: miter"/>
   </g>
   <g id="patch_11">
    <path d="M 377.012837 403.48 
L 386.443792 403.48 
L 386.443792 292.509967 
L 377.012837 292.509967 
z
" clip-path="url(#pb3909bf0c8)" style="fill: #1f77b4; stroke: #ffffff; stroke-linejoin: miter"/>
   </g>
   <g id="patch_12">
    <path d="M 414.736657 403.48 
L 424.167612 403.48 
L 424.167612 292.935335 
L 414.736657 292.935335 
z
" clip-path="url(#pb3909bf0c8)" style="fill: #1f77b4; stroke: #ffffff; stroke-linejoin: miter"/>
   </g>
   <g id="patch_13">
    <path d="M 452.460478 403.48 
L 461.891433 403.48 
L 461.891433 293.088467 
L 452.460478 293.088467 
z
" clip-path="url(#pb3909bf0c8)" style="fill: #1f77b4; stroke: #ffffff; stroke-linejoin: miter"/>
   </g>
   <g id="patch_14">
    <path d="M 490.184298 403.48 
L 499.615253 403.48 
L 499.615253 292.761785 
L 490.184298 292.761785 
z
" clip-path="url(#pb3909bf0c8)" style="fill: #1f77b4; stroke: #ffffff; stroke-linejoin: miter"/>
   </g>
   <g id="patch_15">
    <path d="M 527.908119 403.48 
L 537.339074 403.48 
L 537.339074 291.638813 
L 527.908119 291.638813 
z
" clip-path="url(#pb3909bf0c8)" style="fill: #1f77b4; stroke: #ffffff; stroke-linejoin: miter"/>
   </g>
   <g id="patch_16">
    <path d="M 565.631939 403.48 
L 575.062894 403.48 
L 575.062894 291.359771 
L 565.631939 291.359771 
z
" clip-path="url(#pb3909bf0c8)" style="fill: #1f77b4; stroke: #ffffff; stroke-linejoin: miter"/>
   </g>
   <g id="patch_17">
    <path d="M 603.355759 403.48 
L 612.786715 403.48 
L 612.786715 293.384523 
L 603.355759 293.384523 
z
" clip-path="url(#pb3909bf0c8)" style="fill: #1f77b4; stroke: #ffffff; stroke-linejoin: miter"/>
   </g>
   <g id="patch_18">
    <path d="M 641.07958 403.48 
L 650.510535 403.48 
L 650.510535 291.649022 
L 641.07958 291.649022 
z
" clip-path="url(#pb3909bf0c8)" style="fill: #1f77b4; stroke: #ffffff; stroke-linejoin: miter"/>
   </g>
   <g id="patch_19">
    <path d="M 678.8034 403.48 
L 688.234356 403.48 
L 688.234356 292.407878 
L 678.8034 292.407878 
z
" clip-path="url(#pb3909bf0c8)" style="fill: #1f77b4; stroke: #ffffff; stroke-linejoin: miter"/>
   </g>
   <g id="patch_20">
    <path d="M 716.527221 403.48 
L 725.958176 403.48 
L 725.958176 292.608652 
L 716.527221 292.608652 
z
" clip-path="url(#pb3909bf0c8)" style="fill: #1f77b4; stroke: #ffffff; stroke-linejoin: miter"/>
   </g>
   <g id="patch_21">
    <path d="M 754.251041 403.48 
L 763.681997 403.48 
L 763.681997 292.353431 
L 754.251041 292.353431 
z
" clip-path="url(#pb3909bf0c8)" style="fill: #1f77b4; stroke: #ffffff; stroke-linejoin: miter"/>
   </g>
   <g id="patch_22">
    <path d="M 791.974862 403.48 
L 801.405817 403.48 
L 801.405817 293.731624 
L 791.974862 293.731624 
z
" clip-path="url(#pb3909bf0c8)" style="fill: #1f77b4; stroke: #ffffff; stroke-linejoin: miter"/>
   </g>
   <g id="patch_23">
    <path d="M 84.653228 403.48 
L 94.084183 403.48 
L 94.084183 233.718629 
L 84.653228 233.718629 
z
" clip-path="url(#pb3909bf0c8)" style="fill: #ff7f0e; stroke: #ffffff; stroke-linejoin: miter"/>
   </g>
   <g id="patch_24">
    <path d="M 122.377048 403.48 
L 131.808003 403.48 
L 131.808003 350.501563 
L 122.377048 350.501563 
z
" clip-path="url(#pb3909bf0c8)" style="fill: #ff7f0e; stroke: #ffffff; stroke-linejoin: miter"/>
   </g>
   <g id="patch_25">
    <path d="M 160.100869 403.48 
L 169.531824 403.48 
L 169.531824 314.273005 
L 160.100869 314.273005 
z
" clip-path="url(#pb3909bf0c8)" style="fill: #ff7f0e; stroke: #ffffff; stroke-linejoin: miter"/>
   </g>
   <g id="patch_26">
    <path d="M 197.824689 403.48 
L 207.255644 403.48 
L 207.255644 292.044961 
L 197.824689 292.044961 
z
" clip-path="url(#pb3909bf0c8)" style="fill: #ff7f0e; stroke: #ffffff; stroke-linejoin: miter"/>
   </g>
   <g id="patch_27">
    <path d="M 235.54851 403.48 
L 244.979465 403.48 
L 244.979465 315.952793 
L 235.54851 315.952793 
z
" clip-path="url(#pb3909bf0c8)" style="fill: #ff7f0e; stroke: #ffffff; stroke-linejoin: miter"/>
   </g>
   <g id="patch_28">
    <path d="M 273.27233 403.48 
L 282.703285 403.48 
L 282.703285 259.169122 
L 273.27233 259.169122 
z
" clip-path="url(#pb3909bf0c8)" style="fill: #ff7f0e; stroke: #ffffff; stroke-linejoin: miter"/>
   </g>
   <g id="patch_29">
    <path d="M 310.996151 403.48 
L 320.427106 403.48 
L 320.427106 355.876882 
L 310.996151 355.876882 
z
" clip-path="url(#pb3909bf0c8)" style="fill: #ff7f0e; stroke: #ffffff; stroke-linejoin: miter"/>
   </g>
   <g id="patch_30">
    <path d="M 348.719971 403.48 
L 358.150926 403.48 
L 358.150926 254.061198 
L 348.719971 254.061198 
z
" clip-path="url(#pb3909bf0c8)" style="fill: #ff7f0e; stroke: #ffffff; stroke-linejoin: miter"/>
   </g>
   <g id="patch_31">
    <path d="M 386.443792 403.48 
L 395.874747 403.48 
L 395.874747 221.247065 
L 386.443792 221.247065 
z
" clip-path="url(#pb3909bf0c8)" style="fill: #ff7f0e; stroke: #ffffff; stroke-linejoin: miter"/>
   </g>
   <g id="patch_32">
    <path d="M 424.167612 403.48 
L 433.598567 403.48 
L 433.598567 187.623892 
L 424.167612 187.623892 
z
" clip-path="url(#pb3909bf0c8)" style="fill: #ff7f0e; stroke: #ffffff; stroke-linejoin: miter"/>
   </g>
   <g id="patch_33">
    <path d="M 461.891433 403.48 
L 471.322388 403.48 
L 471.322388 368.746111 
L 461.891433 368.746111 
z
" clip-path="url(#pb3909bf0c8)" style="fill: #ff7f0e; stroke: #ffffff; stroke-linejoin: miter"/>
   </g>
   <g id="patch_34">
    <path d="M 499.615253 403.48 
L 509.046208 403.48 
L 509.046208 328.760314 
L 499.615253 328.760314 
z
" clip-path="url(#pb3909bf0c8)" style="fill: #ff7f0e; stroke: #ffffff; stroke-linejoin: miter"/>
   </g>
   <g id="patch_35">
    <path d="M 537.339074 403.48 
L 546.770029 403.48 
L 546.770029 317.591442 
L 537.339074 317.591442 
z
" clip-path="url(#pb3909bf0c8)" style="fill: #ff7f0e; stroke: #ffffff; stroke-linejoin: miter"/>
   </g>
   <g id="patch_36">
    <path d="M 575.062894 403.48 
L 584.493849 403.48 
L 584.493849 334.005365 
L 575.062894 334.005365 
z
" clip-path="url(#pb3909bf0c8)" style="fill: #ff7f0e; stroke: #ffffff; stroke-linejoin: miter"/>
   </g>
   <g id="patch_37">
    <path d="M 612.786715 403.48 
L 622.21767 403.48 
L 622.21767 183.146745 
L 612.786715 183.146745 
z
" clip-path="url(#pb3909bf0c8)" style="fill: #ff7f0e; stroke: #ffffff; stroke-linejoin: miter"/>
   </g>
   <g id="patch_38">
    <path d="M 650.510535 403.48 
L 659.94149 403.48 
L 659.94149 292.792295 
L 650.510535 292.792295 
z
" clip-path="url(#pb3909bf0c8)" style="fill: #ff7f0e; stroke: #ffffff; stroke-linejoin: miter"/>
   </g>
   <g id="patch_39">
    <path d="M 688.234356 403.48 
L 697.665311 403.48 
L 697.665311 323.220444 
L 688.234356 323.220444 
z
" clip-path="url(#pb3909bf0c8)" style="fill: #ff7f0e; stroke: #ffffff; stroke-linejoin: miter"/>
   </g>
   <g id="patch_40">
    <path d="M 725.958176 403.48 
L 735.389131 403.48 
L 735.389131 239.978409 
L 725.958176 239.978409 
z
" clip-path="url(#pb3909bf0c8)" style="fill: #ff7f0e; stroke: #ffffff; stroke-linejoin: miter"/>
   </g>
   <g id="patch_41">
    <path d="M 763.681997 403.48 
L 773.112952 403.48 
L 773.112952 330.782916 
L 763.681997 330.782916 
z
" clip-path="url(#pb3909bf0c8)" style="fill: #ff7f0e; stroke: #ffffff; stroke-linejoin: miter"/>
   </g>
   <g id="patch_42">
    <path d="M 801.405817 403.48 
L 810.836772 403.48 
L 810.836772 347.573933 
L 801.405817 347.573933 
z
" clip-path="url(#pb3909bf0c8)" style="fill: #ff7f0e; stroke: #ffffff; stroke-linejoin: miter"/>
   </g>
   <g id="patch_43">
    <path d="M 94.084183 403.48 
L 103.515138 403.48 
L 103.515138 316.888346 
L 94.084183 316.888346 
z
" clip-path="url(#pb3909bf0c8)" style="fill: #2ca02c; stroke: #ffffff; stroke-linejoin: miter"/>
   </g>
   <g id="patch_44">
    <path d="M 131.808003 403.48 
L 141.238959 403.48 
L 141.238959 343.398936 
L 131.808003 343.398936 
z
" clip-path="url(#pb3909bf0c8)" style="fill: #2ca02c; stroke: #ffffff; stroke-linejoin: miter"/>
   </g>
   <g id="patch_45">
    <path d="M 169.531824 403.48 
L 178.962779 403.48 
L 178.962779 342.53446 
L 169.531824 342.53446 
z
" clip-path="url(#pb3909bf0c8)" style="fill: #2ca02c; stroke: #ffffff; stroke-linejoin: miter"/>
   </g>
   <g id="patch_46">
    <path d="M 207.255644 403.48 
L 216.6866 403.48 
L 216.6866 269.34218 
L 207.255644 269.34218 
z
" clip-path="url(#pb3909bf0c8)" style="fill: #2ca02c; stroke: #ffffff; stroke-linejoin: miter"/>
   </g>
   <g id="patch_47">
    <path d="M 244.979465 403.48 
L 254.41042 403.48 
L 254.41042 342.390381 
L 244.979465 342.390381 
z
" clip-path="url(#pb3909bf0c8)" style="fill: #2ca02c; stroke: #ffffff; stroke-linejoin: miter"/>
   </g>
   <g id="patch_48">
    <path d="M 282.703285 403.48 
L 292.134241 403.48 
L 292.134241 299.742911 
L 282.703285 299.742911 
z
" clip-path="url(#pb3909bf0c8)" style="fill: #2ca02c; stroke: #ffffff; stroke-linejoin: miter"/>
   </g>
   <g id="patch_49">
    <path d="M 320.427106 403.48 
L 329.858061 403.48 
L 329.858061 335.186416 
L 320.427106 335.186416 
z
" clip-path="url(#pb3909bf0c8)" style="fill: #2ca02c; stroke: #ffffff; stroke-linejoin: miter"/>
   </g>
   <g id="patch_50">
    <path d="M 358.150926 403.48 
L 367.581881 403.48 
L 367.581881 35.213333 
L 358.150926 35.213333 
z
" clip-path="url(#pb3909bf0c8)" style="fill: #2ca02c; stroke: #ffffff; stroke-linejoin: miter"/>
   </g>
   <g id="patch_51">
    <path d="M 395.874747 403.48 
L 405.305702 403.48 
L 405.305702 288.504726 
L 395.874747 288.504726 
z
" clip-path="url(#pb3909bf0c8)" style="fill: #2ca02c; stroke: #ffffff; stroke-linejoin: miter"/>
   </g>
   <g id="patch_52">
    <path d="M 433.598567 403.48 
L 443.029522 403.48 
L 443.029522 226.406552 
L 433.598567 226.406552 
z
" clip-path="url(#pb3909bf0c8)" style="fill: #2ca02c; stroke: #ffffff; stroke-linejoin: miter"/>
   </g>
   <g id="patch_53">
    <path d="M 471.322388 403.48 
L 480.753343 403.48 
L 480.753343 384.605613 
L 471.322388 384.605613 
z
" clip-path="url(#pb3909bf0c8)" style="fill: #2ca02c; stroke: #ffffff; stroke-linejoin: miter"/>
   </g>
   <g id="patch_54">
    <path d="M 509.046208 403.48 
L 518.477163 403.48 
L 518.477163 298.878435 
L 509.046208 298.878435 
z
" clip-path="url(#pb3909bf0c8)" style="fill: #2ca02c; stroke: #ffffff; stroke-linejoin: miter"/>
   </g>
   <g id="patch_55">
    <path d="M 546.770029 403.48 
L 556.200984 403.48 
L 556.200984 281.300762 
L 546.770029 281.300762 
z
" clip-path="url(#pb3909bf0c8)" style="fill: #2ca02c; stroke: #ffffff; stroke-linejoin: miter"/>
   </g>
   <g id="patch_56">
    <path d="M 584.493849 403.48 
L 593.924804 403.48 
L 593.924804 320.922567 
L 584.493849 320.922567 
z
" clip-path="url(#pb3909bf0c8)" style="fill: #2ca02c; stroke: #ffffff; stroke-linejoin: miter"/>
   </g>
   <g id="patch_57">
    <path d="M 622.21767 403.48 
L 631.648625 403.48 
L 631.648625 246.289494 
L 622.21767 246.289494 
z
" clip-path="url(#pb3909bf0c8)" style="fill: #2ca02c; stroke: #ffffff; stroke-linejoin: miter"/>
   </g>
   <g id="patch_58">
    <path d="M 659.94149 403.48 
L 669.372445 403.48 
L 669.372445 313.430443 
L 659.94149 313.430443 
z
" clip-path="url(#pb3909bf0c8)" style="fill: #2ca02c; stroke: #ffffff; stroke-linejoin: miter"/>
   </g>
   <g id="patch_59">
    <path d="M 697.665311 403.48 
L 707.096266 403.48 
L 707.096266 289.225123 
L 697.665311 289.225123 
z
" clip-path="url(#pb3909bf0c8)" style="fill: #2ca02c; stroke: #ffffff; stroke-linejoin: miter"/>
   </g>
   <g id="patch_60">
    <path d="M 735.389131 403.48 
L 744.820086 403.48 
L 744.820086 275.105352 
L 735.389131 275.105352 
z
" clip-path="url(#pb3909bf0c8)" style="fill: #2ca02c; stroke: #ffffff; stroke-linejoin: miter"/>
   </g>
   <g id="patch_61">
    <path d="M 773.112952 403.48 
L 782.543907 403.48 
L 782.543907 360.544371 
L 773.112952 360.544371 
z
" clip-path="url(#pb3909bf0c8)" style="fill: #2ca02c; stroke: #ffffff; stroke-linejoin: miter"/>
   </g>
   <g id="patch_62">
    <path d="M 810.836772 403.48 
L 820.267727 403.48 
L 820.267727 281.156682 
L 810.836772 281.156682 
z
" clip-path="url(#pb3909bf0c8)" style="fill: #2ca02c; stroke: #ffffff; stroke-linejoin: miter"/>
   </g>
   <g id="patch_63">
    <path d="M 37.97 403.48 
L 37.97 16.8 
" style="fill: none; stroke: #cccccc; stroke-width: 0.8; stroke-linejoin: miter; stroke-linecap: square"/>
   </g>
   <g id="patch_64">
    <path d="M 37.97 403.48 
L 857.52 403.48 
" style="fill: none; stroke: #cccccc; stroke-width: 0.8; stroke-linejoin: miter; stroke-linecap: square"/>
   </g>
   <g id="text_32">
    <!-- Aminoacid accuracy compare -->
    <g style="fill: #262626" transform="translate(408.397188 10.8) scale(0.06 -0.06)">
     <defs>
      <path id="ArialMT-20" transform="scale(0.015625)"/>
      <path id="ArialMT-70" d="M 422 -1272 
L 422 3319 
L 934 3319 
L 934 2888 
Q 1116 3141 1344 3267 
Q 1572 3394 1897 3394 
Q 2322 3394 2647 3175 
Q 2972 2956 3137 2557 
Q 3303 2159 3303 1684 
Q 3303 1175 3120 767 
Q 2938 359 2589 142 
Q 2241 -75 1856 -75 
Q 1575 -75 1351 44 
Q 1128 163 984 344 
L 984 -1272 
L 422 -1272 
z
M 931 1641 
Q 931 1000 1190 694 
Q 1450 388 1819 388 
Q 2194 388 2461 705 
Q 2728 1022 2728 1688 
Q 2728 2322 2467 2637 
Q 2206 2953 1844 2953 
Q 1484 2953 1207 2617 
Q 931 2281 931 1641 
z
" transform="scale(0.015625)"/>
     </defs>
     <use xlink:href="#ArialMT-41"/>
     <use xlink:href="#ArialMT-6d" x="66.699219"/>
     <use xlink:href="#ArialMT-69" x="150"/>
     <use xlink:href="#ArialMT-6e" x="172.216797"/>
     <use xlink:href="#ArialMT-6f" x="227.832031"/>
     <use xlink:href="#ArialMT-61" x="283.447266"/>
     <use xlink:href="#ArialMT-63" x="339.0625"/>
     <use xlink:href="#ArialMT-69" x="389.0625"/>
     <use xlink:href="#ArialMT-64" x="411.279297"/>
     <use xlink:href="#ArialMT-20" x="466.894531"/>
     <use xlink:href="#ArialMT-61" x="494.677734"/>
     <use xlink:href="#ArialMT-63" x="550.292969"/>
     <use xlink:href="#ArialMT-63" x="600.292969"/>
     <use xlink:href="#ArialMT-75" x="650.292969"/>
     <use xlink:href="#ArialMT-72" x="705.908203"/>
     <use xlink:href="#ArialMT-61" x="739.208984"/>
     <use xlink:href="#ArialMT-63" x="794.824219"/>
     <use xlink:href="#ArialMT-79" x="844.824219"/>
     <use xlink:href="#ArialMT-20" x="894.824219"/>
     <use xlink:href="#ArialMT-63" x="922.607422"/>
     <use xlink:href="#ArialMT-6f" x="972.607422"/>
     <use xlink:href="#ArialMT-6d" x="1028.222656"/>
     <use xlink:href="#ArialMT-70" x="1111.523438"/>
     <use xlink:href="#ArialMT-61" x="1167.138672"/>
     <use xlink:href="#ArialMT-72" x="1222.753906"/>
     <use xlink:href="#ArialMT-65" x="1256.054688"/>
    </g>
   </g>
   <g id="legend_1">
    <g id="patch_65">
     <path d="M 814.394219 50.075469 
L 854.02 50.075469 
Q 855.02 50.075469 855.02 49.075469 
L 855.02 20.3 
Q 855.02 19.3 854.02 19.3 
L 814.394219 19.3 
Q 813.394219 19.3 813.394219 20.3 
L 813.394219 49.075469 
Q 813.394219 50.075469 814.394219 50.075469 
z
" style="fill: #ffffff; opacity: 0.8; stroke: #cccccc; stroke-linejoin: miter"/>
    </g>
    <g id="text_33">
     <!-- Legend -->
     <g style="fill: #262626" transform="translate(824.197422 25.594688) scale(0.06 -0.06)">
      <defs>
       <path id="ArialMT-67" d="M 319 -275 
L 866 -356 
Q 900 -609 1056 -725 
Q 1266 -881 1628 -881 
Q 2019 -881 2231 -725 
Q 2444 -569 2519 -288 
Q 2563 -116 2559 434 
Q 2191 0 1641 0 
Q 956 0 581 494 
Q 206 988 206 1678 
Q 206 2153 378 2554 
Q 550 2956 876 3175 
Q 1203 3394 1644 3394 
Q 2231 3394 2613 2919 
L 2613 3319 
L 3131 3319 
L 3131 450 
Q 3131 -325 2973 -648 
Q 2816 -972 2473 -1159 
Q 2131 -1347 1631 -1347 
Q 1038 -1347 672 -1080 
Q 306 -813 319 -275 
z
M 784 1719 
Q 784 1066 1043 766 
Q 1303 466 1694 466 
Q 2081 466 2343 764 
Q 2606 1063 2606 1700 
Q 2606 2309 2336 2618 
Q 2066 2928 1684 2928 
Q 1309 2928 1046 2623 
Q 784 2319 784 1719 
z
" transform="scale(0.015625)"/>
      </defs>
      <use xlink:href="#ArialMT-4c"/>
      <use xlink:href="#ArialMT-65" x="55.615234"/>
      <use xlink:href="#ArialMT-67" x="111.230469"/>
      <use xlink:href="#ArialMT-65" x="166.845703"/>
      <use xlink:href="#ArialMT-6e" x="222.460938"/>
      <use xlink:href="#ArialMT-64" x="278.076172"/>
     </g>
    </g>
    <g id="patch_66">
     <path d="M 815.394219 32.936406 
L 825.394219 32.936406 
L 825.394219 29.436406 
L 815.394219 29.436406 
z
" style="fill: #1f77b4; stroke: #ffffff; stroke-linejoin: miter"/>
    </g>
    <g id="text_34">
     <!-- Random -->
     <g style="fill: #262626" transform="translate(829.394219 32.936406) scale(0.05 -0.05)">
      <use xlink:href="#ArialMT-52"/>
      <use xlink:href="#ArialMT-61" x="72.216797"/>
      <use xlink:href="#ArialMT-6e" x="127.832031"/>
      <use xlink:href="#ArialMT-64" x="183.447266"/>
      <use xlink:href="#ArialMT-6f" x="239.0625"/>
      <use xlink:href="#ArialMT-6d" x="294.677734"/>
     </g>
    </g>
    <g id="patch_67">
     <path d="M 815.394219 40.009063 
L 825.394219 40.009063 
L 825.394219 36.509063 
L 815.394219 36.509063 
z
" style="fill: #ff7f0e; stroke: #ffffff; stroke-linejoin: miter"/>
    </g>
    <g id="text_35">
     <!-- Baseline -->
     <g style="fill: #262626" transform="translate(829.394219 40.009063) scale(0.05 -0.05)">
      <defs>
       <path id="ArialMT-42" d="M 469 0 
L 469 4581 
L 2188 4581 
Q 2713 4581 3030 4442 
Q 3347 4303 3526 4014 
Q 3706 3725 3706 3409 
Q 3706 3116 3547 2856 
Q 3388 2597 3066 2438 
Q 3481 2316 3704 2022 
Q 3928 1728 3928 1328 
Q 3928 1006 3792 729 
Q 3656 453 3456 303 
Q 3256 153 2954 76 
Q 2653 0 2216 0 
L 469 0 
z
M 1075 2656 
L 2066 2656 
Q 2469 2656 2644 2709 
Q 2875 2778 2992 2937 
Q 3109 3097 3109 3338 
Q 3109 3566 3000 3739 
Q 2891 3913 2687 3977 
Q 2484 4041 1991 4041 
L 1075 4041 
L 1075 2656 
z
M 1075 541 
L 2216 541 
Q 2509 541 2628 563 
Q 2838 600 2978 687 
Q 3119 775 3209 942 
Q 3300 1109 3300 1328 
Q 3300 1584 3169 1773 
Q 3038 1963 2805 2039 
Q 2572 2116 2134 2116 
L 1075 2116 
L 1075 541 
z
" transform="scale(0.015625)"/>
       <path id="ArialMT-6c" d="M 409 0 
L 409 4581 
L 972 4581 
L 972 0 
L 409 0 
z
" transform="scale(0.015625)"/>
      </defs>
      <use xlink:href="#ArialMT-42"/>
      <use xlink:href="#ArialMT-61" x="66.699219"/>
      <use xlink:href="#ArialMT-73" x="122.314453"/>
      <use xlink:href="#ArialMT-65" x="172.314453"/>
      <use xlink:href="#ArialMT-6c" x="227.929688"/>
      <use xlink:href="#ArialMT-69" x="250.146484"/>
      <use xlink:href="#ArialMT-6e" x="272.363281"/>
      <use xlink:href="#ArialMT-65" x="327.978516"/>
     </g>
    </g>
    <g id="patch_68">
     <path d="M 815.394219 47.081719 
L 825.394219 47.081719 
L 825.394219 43.581719 
L 815.394219 43.581719 
z
" style="fill: #2ca02c; stroke: #ffffff; stroke-linejoin: miter"/>
    </g>
    <g id="text_36">
     <!-- Generated -->
     <g style="fill: #262626" transform="translate(829.394219 47.081719) scale(0.05 -0.05)">
      <defs>
       <path id="ArialMT-74" d="M 1650 503 
L 1731 6 
Q 1494 -44 1306 -44 
Q 1000 -44 831 53 
Q 663 150 594 308 
Q 525 466 525 972 
L 525 2881 
L 113 2881 
L 113 3319 
L 525 3319 
L 525 4141 
L 1084 4478 
L 1084 3319 
L 1650 3319 
L 1650 2881 
L 1084 2881 
L 1084 941 
Q 1084 700 1114 631 
Q 1144 563 1211 522 
Q 1278 481 1403 481 
Q 1497 481 1650 503 
z
" transform="scale(0.015625)"/>
      </defs>
      <use xlink:href="#ArialMT-47"/>
      <use xlink:href="#ArialMT-65" x="77.783203"/>
      <use xlink:href="#ArialMT-6e" x="133.398438"/>
      <use xlink:href="#ArialMT-65" x="189.013672"/>
      <use xlink:href="#ArialMT-72" x="244.628906"/>
      <use xlink:href="#ArialMT-61" x="277.929688"/>
      <use xlink:href="#ArialMT-74" x="333.544922"/>
      <use xlink:href="#ArialMT-65" x="361.328125"/>
      <use xlink:href="#ArialMT-64" x="416.943359"/>
     </g>
    </g>
   </g>
  </g>
 </g>
 <defs>
  <clipPath id="pb3909bf0c8">
   <rect x="37.97" y="16.8" width="819.55" height="386.68"/>
  </clipPath>
 </defs>
</svg>
